<svg xmlns="http://www.w3.org/2000/svg" width="1200" height="675" viewBox="0 0 1200 675"><defs><linearGradient id="bg" x1="0" x2="1"><stop offset="0%" stop-color="#0f172a"/><stop offset="100%" stop-color="#1d4ed8"/></linearGradient><linearGradient id="bar" x1="0" x2="0" y1="0" y2="1"><stop offset="0%" stop-color="#60a5fa"/><stop offset="100%" stop-color="#93c5fd"/></linearGradient></defs><rect width="1200" height="675" fill="url(#bg)"/><g fill="none" stroke="rgba(255,255,255,.18)"><path d="M120 120H1080"/><path d="M120 240H1080"/><path d="M120 360H1080"/><path d="M120 480H1080"/><path d="M120 600H1080"/></g><g fill="url(#bar)"><rect x="180" y="360" width="90" height="240" rx="18"/><rect x="330" y="290" width="90" height="310" rx="18"/><rect x="480" y="240" width="90" height="360" rx="18"/><rect x="630" y="185" width="90" height="415" rx="18"/><rect x="780" y="135" width="90" height="465" rx="18"/></g><polyline fill="none" stroke="#f8fafc" stroke-width="8" points="225,340 375,270 525,215 675,160 825,110"/><g font-family="Inter, Arial, sans-serif" fill="#e5efff"><text x="120" y="78" font-size="38" font-weight="700">Quarterly growth</text><text x="120" y="630" font-size="24">Q1</text><text x="270" y="630" font-size="24">Q2</text><text x="420" y="630" font-size="24">Q3</text><text x="570" y="630" font-size="24">Q4</text><text x="720" y="630" font-size="24">Q5</text></g></svg>